# xmcd CD database file generated by OrangeCD 5.2
#
# Track frame offsets:
#	183
#	11800
#	22800
#	34158
#	46423
#	58490
#	72468
#	79490
#	94968
#	108790
#	118895
#	128740
#	147673
#	165135
#	179245
#	188905
#	197428
#	205113
#	217728
#	229150
#	238958
#	255468
#	272613
#	283533
#	293160
#	302078
#	310098
#
# Disc length: 4334 seconds
#
# Revision: 1
# Processed by: cddbd v1.5.1PL0 Copyright (c) Steve Scherf et al.
# Submitted via: OrangeCD 5.2
#
DISCID=9310ec1b
DTITLE=Jerry Lee Lewis - The Sun Years - cd 5
DYEAR=1989
DGENRE=Blues
TTITLE0=The Return Of Jerry Lee
TTITLE1=Settin' The Woods On Fire
TTITLE2=Break Up-1
TTITLE3=Johnny B. Goode
TTITLE4=Break Up-2
TTITLE5=I'll Make It All Up To You-1
TTITLE6=I'll Make It All Up To You-2
TTITLE7=I'll Make It All Up To You-3
TTITLE8=Drinkin' Wine Spo-Dee-O-Dee
TTITLE9=I'll Sail My Ship Alone-1
TTITLE10=I'll Sail My Ship Alone-2
TTITLE11=It Hurts Me So-1
TTITLE12=It Hurts Me So-2
TTITLE13=You're The Only Star
TTITLE14=Lovin' Up A Storm-1
TTITLE15=Lovin' Up A Storm-2
TTITLE16=Big Blon' Baby
TTITLE17=Sick And Tired
TTITLE18=(Just A Shanty In Old) Shanty Town
TTITLE19=Release Me
TTITLE20=I Could Never Be Ashamed Of You-1
TTITLE21=Near You
TTITLE22=I Could Never Be Ashamed Of You-2
TTITLE23=Hillbilly Fever
TTITLE24=My Blue Heaven-1
TTITLE25=My Blue Heaven-2
TTITLE26=Let's Talk About Us
EXTD=
EXTT0=
EXTT1=
EXTT2=
EXTT3=
EXTT4=
EXTT5=
EXTT6=
EXTT7=
EXTT8=
EXTT9=
EXTT10=
EXTT11=
EXTT12=
EXTT13=
EXTT14=
EXTT15=
EXTT16=
EXTT17=
EXTT18=
EXTT19=
EXTT20=
EXTT21=
EXTT22=
EXTT23=
EXTT24=
EXTT25=
EXTT26=
PLAYORDER=
